<svg width="25" height="24" viewBox="0 0 25 24" fill="none" xmlns="http://www.w3.org/2000/svg">
<path d="M6.45007 3.59995C7.05007 2.99995 6.60007 1.19995 5.58727 1.19995C4.57447 1.19995 4.65007 2.39995 5.25007 2.39995C5.85007 2.39995 5.85007 3.59995 5.85007 4.19995C5.85007 4.79995 6.45007 3.59995 6.45007 3.59995ZM3.94027 4.63195C4.54027 4.03195 4.09027 2.23195 3.07747 2.23195C2.06467 2.23195 2.14027 3.43195 2.74027 3.43195C3.34027 3.43195 3.34027 4.63195 3.34027 5.23195C3.34027 5.83195 3.94027 4.63195 3.94027 4.63195Z" fill="#AA8DD8"/>
<path d="M19.7653 20.9135C19.8787 21.3983 20.5015 22.2815 20.9845 22.1681C21.4681 22.0541 21.6307 20.9855 21.5173 20.5019C21.4039 20.0171 20.9185 19.7177 20.4349 19.8317C19.9519 19.9457 19.6513 20.4299 19.7653 20.9135V20.9135ZM16.5049 21.3029C16.5067 21.8009 16.9135 22.8017 17.4103 22.7999C17.9071 22.7975 18.3067 21.7937 18.3049 21.2963C18.3031 20.7989 17.8987 20.3981 17.4019 20.3993C16.9051 20.4017 16.5031 20.8055 16.5049 21.3029V21.3029ZM13.3423 19.8353C13.1467 20.2937 13.1233 21.3731 13.5799 21.5693C14.0377 21.7637 14.8021 21.0011 14.9977 20.5433C15.1927 20.0861 14.9809 19.5575 14.5243 19.3613C14.0671 19.1663 13.5385 19.3775 13.3423 19.8353V19.8353ZM10.3237 13.2113C9.8365 13.3145 8.9389 13.9151 9.0403 14.4011C9.1441 14.8871 10.2073 15.0755 10.6945 14.9729C11.1811 14.8703 11.4919 14.3927 11.3905 13.9067C11.2873 13.4207 10.8115 13.1087 10.3237 13.2113ZM9.10149 10.2113C8.61429 10.3145 7.71669 10.9151 7.81809 11.4011C7.92189 11.8871 8.98509 12.0755 9.47229 11.9729C9.95889 11.8703 10.2697 11.3927 10.1683 10.9067C10.0651 10.4207 9.58869 10.1087 9.10149 10.2113V10.2113Z" fill="#744EAA"/>
<path d="M18.3474 21.6C20.046 21.6 21.303 21.0738 21.507 20.9838C22.8696 20.3778 23.4828 18.7824 22.8774 17.4204C22.278 16.0704 20.7078 15.4554 19.3542 16.032C19.2744 16.062 18.2784 16.4214 17.3484 15.9888C16.2378 15.4722 15.5514 14.0034 15.1716 12.8634C15.0852 12.6054 14.9406 12.099 14.76 11.4738C13.6404 7.59117 13.0608 6.50277 12.3702 5.58177C10.1436 2.61117 6.61501 2.40417 4.88041 2.75217C3.41821 3.04437 2.46961 4.46697 2.76241 5.92917C3.05521 7.39197 4.47841 8.34117 5.94001 8.04717C6.03721 8.03157 7.26241 7.86357 7.99441 8.74857C8.38021 9.52077 9.24241 11.8254 9.57241 12.969C9.78001 13.6884 9.94981 14.2716 10.0488 14.5692C11.1126 17.7594 12.8484 19.905 15.2106 20.9466C16.3218 21.4374 17.403 21.6 18.3474 21.6Z" fill="#9266CC"/>
<path d="M6.01028 4.79998C6.34165 4.79998 6.61028 4.53135 6.61028 4.19998C6.61028 3.8686 6.34165 3.59998 6.01028 3.59998C5.67891 3.59998 5.41028 3.8686 5.41028 4.19998C5.41028 4.53135 5.67891 4.79998 6.01028 4.79998Z" fill="#202024"/>
<path d="M20.5549 20.9783C20.5015 20.9783 20.4469 20.9711 20.3935 20.9567C20.0743 20.8679 19.8871 20.5373 19.9759 20.2181C20.4301 18.5849 19.5139 17.4929 19.5049 17.4821C19.2895 17.2307 19.3177 16.8515 19.5691 16.6361C19.8199 16.4207 20.1997 16.4489 20.4151 16.7003C20.4703 16.7645 21.7555 18.2963 21.1321 20.5385C21.0589 20.8043 20.8171 20.9783 20.5549 20.9783V20.9783ZM16.2355 20.6405C16.0885 20.6405 15.9415 20.5871 15.8251 20.4785C15.5833 20.2517 15.5707 19.8719 15.7969 19.6301C16.6879 18.6779 16.6687 17.1143 16.6681 17.0981C16.6585 16.7669 16.9195 16.4909 17.2513 16.4813C17.5765 16.4783 17.8591 16.7327 17.8681 17.0645C17.8705 17.1479 17.9119 19.1267 16.6735 20.4509C16.5553 20.5769 16.3951 20.6405 16.2355 20.6405V20.6405ZM11.1103 15.4229C10.8223 15.4229 10.5679 15.2147 10.5193 14.9207C10.4653 14.5943 10.6861 14.2847 11.0131 14.2313C12.8575 13.9253 13.8775 12.8051 13.8877 12.7937C14.1067 12.5477 14.4865 12.5243 14.7331 12.7433C14.9803 12.9623 15.0049 13.3391 14.7877 13.5869C14.7355 13.6463 13.4941 15.0359 11.2093 15.4145C11.1757 15.4205 11.1427 15.4229 11.1103 15.4229V15.4229ZM12.8629 18.3371C12.6079 18.3371 12.3715 18.1739 12.2905 17.9183C12.1909 17.6027 12.3661 17.2649 12.6817 17.1653C14.2975 16.6535 15.0097 15.4673 15.0169 15.4553C15.1849 15.1691 15.5521 15.0731 15.8377 15.2411C16.1239 15.4085 16.2193 15.7769 16.0519 16.0619C16.0141 16.1267 15.0949 17.6597 13.0441 18.3083C12.9835 18.3281 12.9223 18.3371 12.8629 18.3371V18.3371ZM10.0915 11.9351C9.79385 11.9351 9.53525 11.7137 9.49685 11.4101C9.45545 11.0813 9.68825 10.7813 10.0171 10.7393C11.6305 10.5353 12.8113 9.55671 12.8227 9.54651C13.0759 9.33411 13.4545 9.36471 13.6675 9.61791C13.8811 9.87051 13.8505 10.2479 13.5985 10.4621C13.5403 10.5119 12.1465 11.6795 10.1677 11.9297C10.1419 11.9333 10.1167 11.9351 10.0915 11.9351V11.9351ZM8.99885 9.07491C8.74385 9.07491 8.50745 8.91111 8.42645 8.65431C8.32745 8.33811 8.50265 8.00151 8.81885 7.90191C10.6969 7.31211 11.3707 6.28671 11.3983 6.24351C11.5753 5.96631 11.9449 5.88051 12.2233 6.05631C12.5023 6.23151 12.5899 6.59571 12.4177 6.87591C12.3817 6.93411 11.5141 8.31351 9.17825 9.04731C9.11885 9.06591 9.05825 9.07491 8.99885 9.07491V9.07491Z" fill="#744EAA"/>
</svg>
