<svg width="25" height="24" viewBox="0 0 25 24" fill="none" xmlns="http://www.w3.org/2000/svg">
<path d="M19.1 8.35205C19.1 12.2155 16.1 12.8155 16.1 16.4161C16.1 18.2749 14.2262 18.4315 12.8 18.4315C11.5682 18.4315 8.84842 17.9641 8.84842 16.4149C8.84842 12.8161 5.90002 12.2161 5.90002 8.35205C5.90002 4.73345 9.07102 1.80005 12.5498 1.80005C16.0298 1.80005 19.1 4.73345 19.1 8.35205Z" fill="#FFD983"/>
<path d="M15.0002 21.216C15.0002 21.7128 13.6598 22.716 12.5 22.716C11.3402 22.716 9.99982 21.7128 9.99982 21.216C9.99982 20.7192 11.3396 20.916 12.5 20.916C13.6598 20.916 15.0002 20.7192 15.0002 21.216Z" fill="#CCD6DD"/>
<path d="M15.3242 7.89189C15.0896 7.65729 14.7104 7.65729 14.4758 7.89189L12.5 9.86769L10.5242 7.89189C10.2896 7.65729 9.91043 7.65729 9.67583 7.89189C9.44123 8.12649 9.44123 8.50569 9.67583 8.74029L11.9 10.9645V17.3161C11.9 17.6479 12.1688 17.9161 12.5 17.9161C12.8312 17.9161 13.1 17.6479 13.1 17.3161V10.9645L15.3242 8.74029C15.5588 8.50569 15.5588 8.12649 15.3242 7.89189Z" fill="#FFCC4D"/>
<path d="M16.1 20.3161C16.1 20.9785 15.5624 21.5161 14.9 21.5161H10.1C9.43762 21.5161 8.90002 20.9785 8.90002 20.3161V16.7161H16.1V20.3161Z" fill="#99AAB5"/>
<path d="M8.8994 20.916C8.6114 20.916 8.357 20.7078 8.3084 20.4144C8.2538 20.088 8.4746 19.7784 8.8016 19.7244L16.0016 18.5244C16.328 18.4656 16.6376 18.6906 16.6916 19.0176C16.7462 19.344 16.5254 19.6536 16.1984 19.7076L8.9984 20.9076C8.9654 20.9136 8.9318 20.916 8.8994 20.916ZM8.8994 18.516C8.6114 18.516 8.357 18.3078 8.3084 18.0144C8.2538 17.688 8.4746 17.3784 8.8016 17.3244L16.0016 16.1244C16.328 16.0662 16.6376 16.2906 16.6916 16.6176C16.7462 16.944 16.5254 17.2536 16.1984 17.3076L8.9984 18.5076C8.9654 18.5136 8.9318 18.516 8.8994 18.516Z" fill="#CCD6DD"/>
</svg>
