<svg width="25" height="24" viewBox="0 0 25 24" fill="none" xmlns="http://www.w3.org/2000/svg">
<path d="M23.3 8.92503C23.3 6.60542 21.4196 4.72502 19.1 4.72502C18.3998 4.72502 17.741 4.89902 17.1608 5.20142C15.9116 3.50522 13.9058 2.40002 11.6378 2.40002C8.55859 2.40002 5.95279 4.42802 5.08399 7.22163C3.48919 7.59183 2.29999 9.01803 2.29999 10.725C2.29999 12.5124 3.60439 13.992 5.31259 14.2728C5.44219 16.6422 7.39879 18.525 9.79999 18.525C11.1056 18.525 12.278 17.9652 13.1 17.0772C13.922 17.9652 15.0938 18.525 16.4 18.525C18.8858 18.525 20.9 16.5108 20.9 14.025C20.9 13.599 20.837 13.1886 20.7266 12.798C22.238 12.1626 23.3 10.668 23.3 8.92503Z" fill="#85C8F8"/>
<path d="M4.69999 22.125C5.69411 22.125 6.49999 21.3191 6.49999 20.325C6.49999 19.3309 5.69411 18.525 4.69999 18.525C3.70588 18.525 2.89999 19.3309 2.89999 20.325C2.89999 21.3191 3.70588 22.125 4.69999 22.125Z" fill="#85C8F8"/>
</svg>
